<?xml version="1.0" encoding="utf-8"?>
<!-- Generator: Adobe Illustrator 21.1.0, SVG Export Plug-In . SVG Version: 6.00 Build 0)  -->
<svg version="1.1" id="Layer_1" xmlns="http://www.w3.org/2000/svg" xmlns:xlink="http://www.w3.org/1999/xlink" x="0px" y="0px"
	 viewBox="0 0 113 58" style="enable-background:new 0 0 113 58;" xml:space="preserve">
<style type="text/css">
	.st0{fill:#FFFFFF;}
</style>
<g>
	<path class="st0" d="M13,36.3c0.2-1.1,0.2-2.1-0.1-3c3.1-0.5,6-2.5,7.6-5.2c0.8-1.4,1.3-2.9,1.3-4.4c0-4-3.2-8-7.1-8.5
		c-3.9-0.7-7.9,0.7-10.3,3.4c-2.1,2.5-3.4,5.8-3.9,9.8C0.4,29.2,1,29.9,1.8,30s1.6-0.5,1.7-1.3c0.4-3.3,1.5-6.1,3.2-8.1
		s4.7-2.9,7.6-2.5c2.4,0.4,4.5,3,4.5,5.6c0,0.9-0.3,1.9-0.9,2.9c-1.5,2.5-4.5,4.1-7.4,3.9c-0.6,0-1.2,0.3-1.5,0.9
		c-0.2,0.5,0,1.2,0.5,1.6c0.7,0.6,0.8,1.9,0.6,2.8c-0.3,1.7-1.4,3.2-2.9,4.3c-1,0.7-2.2,1.1-3.5,1.2c1.2-2.8,2.4-5.4,3.6-8
		c1.5-3.2,3-6.6,4.5-10c0.3-0.8,0-1.6-0.8-2c-0.8-0.3-1.6,0-2,0.8c-1.5,3.4-3,6.8-4.5,10s-3,6.6-4.5,10c-0.2,0.4-0.2,0.9,0,1.3
		s0.6,0.7,1,0.8c0.7,0.1,1.3,0.2,2,0.2c2,0,4-0.6,5.7-1.8C11.1,41,12.6,38.8,13,36.3z"/>
	<path class="st0" d="M17.9,43.7c0.2,0.4,0.6,0.7,1,0.8s0.8,0.1,1.3,0.1c2.7,0,6.7-1.2,7.6-1.4c0.8-0.2,1.2-1.1,1-1.9
		c-0.2-0.8-1.1-1.2-1.9-1c-1.5,0.5-3.7,1-5.4,1.2c3.5-7.7,9-22.7,9.3-23.5s-0.1-1.6-0.9-1.9c-0.8-0.3-1.6,0.1-1.9,0.9
		c-0.1,0.2-7,19-10.2,25.3C17.7,42.8,17.7,43.3,17.9,43.7z"/>
	<path class="st0" d="M33.5,44.2c0.5,0.3,1,0.4,1.5,0.4c2,0,4.3-1.7,5.4-2.8c5-5.2,10.6-17.3,12.6-23.7c0.2-0.8-0.2-1.6-1-1.9
		c-0.8-0.2-1.6,0.2-1.9,1c-2,6.2-7.4,17.8-11.9,22.5c-0.7,0.7-1.5,1.3-2.1,1.6c1.7-7.5,5.8-23.1,5.9-23.3c0.2-0.8-0.3-1.6-1.1-1.8
		c-0.8-0.2-1.6,0.2-1.9,1c-0.2,0.8-5,19.1-6.3,25.3C32.6,43.2,32.9,43.9,33.5,44.2z"/>
	<path class="st0" d="M57.7,16.9c0,0,0,0.1-0.1,0.1l0,0c-1.2,3.3-3,7.7-4.6,11.9s-3.3,8.5-4.6,11.8c-0.6,0.2-0.9,0.8-0.9,1.5
		c0,0.8,0.7,1.4,1.5,1.4h0.1c0.9-0.1,3.6-0.1,6.2-0.1c2.8,0,5.4-0.1,6.4-0.1c0.8-0.1,1.5-0.8,1.4-1.6s-0.8-1.5-1.6-1.4
		c-0.9,0.1-3.6,0.1-6.2,0.1c-1.3,0-2.5,0-3.6,0c0.9-2.4,2-5.1,3.1-7.9c0.8,0,2.2,0.1,3.5,0.1c1.1,0,2.2,0,2.9-0.1
		c0.8-0.1,1.4-0.9,1.3-1.7c-0.1-0.8-0.9-1.4-1.7-1.3c-1,0.1-3.2,0.1-4.9,0.1c1.4-3.7,2.9-7.4,4.1-10.4c0.9,0.1,2.2,0.3,3.6,0.3
		c1.3,0,2.7-0.1,3.9-0.5c0.8-0.3,1.2-1.1,0.9-1.9c-0.3-0.8-1.1-1.2-1.9-0.9c-2.1,0.7-5.9,0.2-7.2,0l0,0c-0.1,0-0.1,0-0.2,0H59
		c-0.1,0-0.1,0-0.2,0h-0.1c-0.1,0-0.1,0-0.2,0.1c0,0,0,0-0.1,0s-0.1,0.1-0.2,0.1l0,0c-0.1,0-0.1,0.1-0.2,0.1l0,0
		c0,0-0.1,0.1-0.1,0.2c0,0,0,0.1-0.1,0.1C57.7,16.8,57.7,16.9,57.7,16.9z"/>
	<path class="st0" d="M68.1,27.2c-0.8,0.2-1.3,1-1.1,1.8c0.3,1.1,0.8,1.9,1.6,2.7c-1.3,3.6-2.7,7.3-3.6,10.6c-0.2,0.8,0.2,1.6,1,1.8
		c0.1,0,0.3,0.1,0.4,0.1c0.7,0,1.3-0.4,1.4-1.1c0.8-2.7,1.8-5.8,3-8.8c0.4,1.9,1,4.4,2,6.3c1.1,2.1,2.6,3.3,4.2,3.3
		c0.1,0,0.2,0,0.3,0c0.9-0.1,1.7-0.5,2.2-1.3c0.5-0.6,0.6-1.4,0.4-2.1c-0.2-0.8-1-1.3-1.8-1.1c-0.7,0.2-1.2,0.8-1.1,1.5
		c-0.4,0-1-0.7-1.5-1.7c-0.6-1.3-1.3-3.3-1.8-5.6c0.1,0,0.3,0,0.4,0c1.5,0,2.7-0.2,3.4-0.5c2.1-0.7,4-2.2,5.3-4.2s1.9-4.2,1.7-6.3
		c-0.1-2.5-1.5-4.7-3.5-5.7c-2.2-1.2-4.9-1-6.7,0.5c-0.3,0.1-0.5,0.2-0.7,0.4l-0.3,0.3c-0.3,0.3-0.5,0.9-0.4,1.3
		c-0.8,2.7-1.9,5.7-3,8.7C69.7,27.4,68.9,27,68.1,27.2z M75.9,19.9c0.1,0,0.1-0.1,0.2-0.1c0.9-0.8,2.4-0.9,3.5-0.3s2,1.9,2.1,3.4
		c0.2,1.4-0.3,2.9-1.2,4.3c-0.9,1.4-2.3,2.5-3.8,3c-0.8,0.3-2.7,0.5-4.4,0.1C73.7,26.7,75,23.1,75.9,19.9z"/>
	<path class="st0" d="M85.1,44.1c0.1,0,0.3,0.1,0.4,0.1c0.7,0,1.3-0.4,1.4-1.1c2-6.9,7.9-24.8,8-24.9c0.3-0.8-0.2-1.6-0.9-1.9
		c-0.8-0.3-1.6,0.2-1.9,0.9c-0.1,0.2-6,18.1-8,25.1C83.8,43,84.3,43.8,85.1,44.1z"/>
	<path class="st0" d="M111.9,16.2c-0.8-0.2-1.6,0.2-1.8,1c-0.5,1.8-1,3.8-1.5,5.9c-1,4.2-2.2,8.7-3.6,12.7c-0.2-1.7-0.4-3.5-0.7-5.3
		c-0.6-4.3-1.3-8.8-0.8-12.7c0.1-0.7-0.3-1.4-1-1.6c-0.7-0.2-1.4,0.1-1.8,0.7c-4.1,7.1-8,24.2-8.2,24.9c-0.2,0.8,0.3,1.6,1.1,1.8
		c0.8,0.2,1.6-0.3,1.8-1.1c0-0.1,2.3-10,5.1-17.7c0.2,2,0.5,4.1,0.8,6.2c0.6,4.2,1.2,8.2,0.7,11.5c-0.1,0.7,0.3,1.4,1,1.6
		c0.2,0.1,0.3,0.1,0.5,0.1c0.5,0,1-0.3,1.3-0.7c3-5.1,5-12.8,6.7-19.6c0.5-2.1,1-4,1.5-5.8C113.2,17.2,112.7,16.4,111.9,16.2z"/>
	<path class="st0" d="M86.4,53.7c-24.7-6.5-51.1-6.5-76,0.2c0,0,0,0-0.1,0c-1,0.3-1.6,1.4-1.3,2.4s1.4,1.6,2.4,1.3
		c24-7.2,50-8.1,74.6-2.4c0.4,0.1,0.8-0.2,0.9-0.6C87.1,54.2,86.8,53.8,86.4,53.7z"/>
</g>
</svg>
